<mxfile host="app.diagrams.net" modified="2022-09-01T23:11:23.475Z" agent="5.0 (Windows NT 10.0; Win64; x64) AppleWebKit/537.36 (KHTML, like Gecko) Chrome/104.0.5112.102 Safari/537.36 Edg/104.0.1293.70" etag="G2q7iMBQO0uDuyPDwS5f" version="20.2.8" type="github">
  <diagram id="2qk_eDRiJNsu-lJcDSka" name="Page-1">
    <mxGraphModel dx="2272" dy="794" grid="1" gridSize="10" guides="1" tooltips="1" connect="1" arrows="1" fold="1" page="1" pageScale="1" pageWidth="850" pageHeight="1100" math="0" shadow="0">
      <root>
        <mxCell id="0" />
        <mxCell id="1" parent="0" />
        <mxCell id="__SgPXwpqiIa2IWLgyJE-30" style="edgeStyle=orthogonalEdgeStyle;rounded=0;orthogonalLoop=1;jettySize=auto;html=1;" parent="1" source="__SgPXwpqiIa2IWLgyJE-1" edge="1">
          <mxGeometry relative="1" as="geometry">
            <mxPoint x="-595" y="203" as="targetPoint" />
          </mxGeometry>
        </mxCell>
        <mxCell id="__SgPXwpqiIa2IWLgyJE-1" value="" style="shape=mxgraph.cisco.routers.atm_router;sketch=0;html=1;pointerEvents=1;dashed=0;fillColor=#036897;strokeColor=#ffffff;strokeWidth=2;verticalLabelPosition=bottom;verticalAlign=top;align=center;outlineConnect=0;" parent="1" vertex="1">
          <mxGeometry x="-620" y="60" width="50" height="40" as="geometry" />
        </mxCell>
        <mxCell id="__SgPXwpqiIa2IWLgyJE-29" style="edgeStyle=orthogonalEdgeStyle;rounded=0;orthogonalLoop=1;jettySize=auto;html=1;" parent="1" source="__SgPXwpqiIa2IWLgyJE-4" edge="1">
          <mxGeometry relative="1" as="geometry">
            <mxPoint x="-570" y="77" as="targetPoint" />
          </mxGeometry>
        </mxCell>
        <mxCell id="__SgPXwpqiIa2IWLgyJE-4" value="" style="shape=mxgraph.cisco.security.firewall;sketch=0;html=1;pointerEvents=1;dashed=0;fillColor=#036897;strokeColor=#ffffff;strokeWidth=2;verticalLabelPosition=bottom;verticalAlign=top;align=center;outlineConnect=0;" parent="1" vertex="1">
          <mxGeometry x="-472.5" y="43" width="29" height="67" as="geometry" />
        </mxCell>
        <mxCell id="__SgPXwpqiIa2IWLgyJE-5" value="" style="shape=mxgraph.cisco.security.firewall;sketch=0;html=1;pointerEvents=1;dashed=0;fillColor=#036897;strokeColor=#ffffff;strokeWidth=2;verticalLabelPosition=bottom;verticalAlign=top;align=center;outlineConnect=0;" parent="1" vertex="1">
          <mxGeometry x="-220" y="43" width="29" height="67" as="geometry" />
        </mxCell>
        <mxCell id="__SgPXwpqiIa2IWLgyJE-26" style="edgeStyle=orthogonalEdgeStyle;rounded=0;orthogonalLoop=1;jettySize=auto;html=1;" parent="1" source="__SgPXwpqiIa2IWLgyJE-11" edge="1">
          <mxGeometry relative="1" as="geometry">
            <mxPoint x="-440" y="80" as="targetPoint" />
          </mxGeometry>
        </mxCell>
        <mxCell id="__SgPXwpqiIa2IWLgyJE-27" style="edgeStyle=orthogonalEdgeStyle;rounded=0;orthogonalLoop=1;jettySize=auto;html=1;" parent="1" source="__SgPXwpqiIa2IWLgyJE-11" edge="1">
          <mxGeometry relative="1" as="geometry">
            <mxPoint x="-230" y="80" as="targetPoint" />
          </mxGeometry>
        </mxCell>
        <mxCell id="__SgPXwpqiIa2IWLgyJE-31" style="edgeStyle=orthogonalEdgeStyle;rounded=0;orthogonalLoop=1;jettySize=auto;html=1;exitX=0.5;exitY=1;exitDx=0;exitDy=0;exitPerimeter=0;" parent="1" source="__SgPXwpqiIa2IWLgyJE-11" edge="1">
          <mxGeometry relative="1" as="geometry">
            <mxPoint x="-337" y="120" as="targetPoint" />
          </mxGeometry>
        </mxCell>
        <mxCell id="__SgPXwpqiIa2IWLgyJE-11" value="" style="shape=mxgraph.cisco.routers.atm_router;sketch=0;html=1;pointerEvents=1;dashed=0;fillColor=#036897;strokeColor=#ffffff;strokeWidth=2;verticalLabelPosition=bottom;verticalAlign=top;align=center;outlineConnect=0;" parent="1" vertex="1">
          <mxGeometry x="-362" y="60" width="50" height="40" as="geometry" />
        </mxCell>
        <mxCell id="__SgPXwpqiIa2IWLgyJE-32" style="edgeStyle=orthogonalEdgeStyle;rounded=0;orthogonalLoop=1;jettySize=auto;html=1;exitX=0.5;exitY=1;exitDx=0;exitDy=0;exitPerimeter=0;entryX=0.5;entryY=0;entryDx=0;entryDy=0;entryPerimeter=0;" parent="1" source="__SgPXwpqiIa2IWLgyJE-12" target="__SgPXwpqiIa2IWLgyJE-13" edge="1">
          <mxGeometry relative="1" as="geometry" />
        </mxCell>
        <mxCell id="__SgPXwpqiIa2IWLgyJE-33" style="edgeStyle=orthogonalEdgeStyle;rounded=0;orthogonalLoop=1;jettySize=auto;html=1;exitX=0.05;exitY=0.5;exitDx=0;exitDy=0;exitPerimeter=0;" parent="1" source="__SgPXwpqiIa2IWLgyJE-12" target="__SgPXwpqiIa2IWLgyJE-14" edge="1">
          <mxGeometry relative="1" as="geometry" />
        </mxCell>
        <mxCell id="__SgPXwpqiIa2IWLgyJE-34" style="edgeStyle=orthogonalEdgeStyle;rounded=0;orthogonalLoop=1;jettySize=auto;html=1;exitX=0.955;exitY=0.5;exitDx=0;exitDy=0;exitPerimeter=0;" parent="1" source="__SgPXwpqiIa2IWLgyJE-12" target="__SgPXwpqiIa2IWLgyJE-15" edge="1">
          <mxGeometry relative="1" as="geometry" />
        </mxCell>
        <mxCell id="__SgPXwpqiIa2IWLgyJE-12" value="" style="verticalLabelPosition=bottom;html=1;verticalAlign=top;align=center;strokeColor=none;fillColor=#00BEF2;shape=mxgraph.azure.azure_load_balancer;" parent="1" vertex="1">
          <mxGeometry x="-362" y="143" width="50" height="35" as="geometry" />
        </mxCell>
        <mxCell id="__SgPXwpqiIa2IWLgyJE-13" value="" style="outlineConnect=0;dashed=0;verticalLabelPosition=bottom;verticalAlign=top;align=center;html=1;shape=mxgraph.aws3.traditional_server;fillColor=#7D7C7C;gradientColor=none;" parent="1" vertex="1">
          <mxGeometry x="-349.5" y="252" width="26" height="63" as="geometry" />
        </mxCell>
        <mxCell id="__SgPXwpqiIa2IWLgyJE-14" value="" style="outlineConnect=0;dashed=0;verticalLabelPosition=bottom;verticalAlign=top;align=center;html=1;shape=mxgraph.aws3.traditional_server;fillColor=#7D7C7C;gradientColor=none;" parent="1" vertex="1">
          <mxGeometry x="-395.5" y="252" width="26" height="63" as="geometry" />
        </mxCell>
        <mxCell id="__SgPXwpqiIa2IWLgyJE-15" value="" style="outlineConnect=0;dashed=0;verticalLabelPosition=bottom;verticalAlign=top;align=center;html=1;shape=mxgraph.aws3.traditional_server;fillColor=#7D7C7C;gradientColor=none;" parent="1" vertex="1">
          <mxGeometry x="-304.5" y="252" width="26" height="63" as="geometry" />
        </mxCell>
        <mxCell id="__SgPXwpqiIa2IWLgyJE-39" style="edgeStyle=orthogonalEdgeStyle;rounded=0;orthogonalLoop=1;jettySize=auto;html=1;" parent="1" source="__SgPXwpqiIa2IWLgyJE-17" target="__SgPXwpqiIa2IWLgyJE-28" edge="1">
          <mxGeometry relative="1" as="geometry" />
        </mxCell>
        <mxCell id="__SgPXwpqiIa2IWLgyJE-17" value="" style="image;html=1;image=img/lib/clip_art/computers/Workstation_128x128.png" parent="1" vertex="1">
          <mxGeometry x="-810" y="151" width="60" height="40" as="geometry" />
        </mxCell>
        <mxCell id="__SgPXwpqiIa2IWLgyJE-38" style="edgeStyle=orthogonalEdgeStyle;rounded=0;orthogonalLoop=1;jettySize=auto;html=1;entryX=0;entryY=0.5;entryDx=0;entryDy=0;" parent="1" source="__SgPXwpqiIa2IWLgyJE-18" target="__SgPXwpqiIa2IWLgyJE-28" edge="1">
          <mxGeometry relative="1" as="geometry" />
        </mxCell>
        <mxCell id="__SgPXwpqiIa2IWLgyJE-18" value="" style="image;html=1;image=img/lib/clip_art/computers/Workstation_128x128.png" parent="1" vertex="1">
          <mxGeometry x="-810" y="221.25" width="60" height="40" as="geometry" />
        </mxCell>
        <mxCell id="__SgPXwpqiIa2IWLgyJE-40" style="edgeStyle=orthogonalEdgeStyle;rounded=0;orthogonalLoop=1;jettySize=auto;html=1;" parent="1" source="__SgPXwpqiIa2IWLgyJE-19" target="__SgPXwpqiIa2IWLgyJE-28" edge="1">
          <mxGeometry relative="1" as="geometry" />
        </mxCell>
        <mxCell id="__SgPXwpqiIa2IWLgyJE-19" value="" style="image;html=1;image=img/lib/clip_art/computers/Workstation_128x128.png" parent="1" vertex="1">
          <mxGeometry x="-810" y="293" width="60" height="40" as="geometry" />
        </mxCell>
        <mxCell id="__SgPXwpqiIa2IWLgyJE-35" style="edgeStyle=orthogonalEdgeStyle;rounded=0;orthogonalLoop=1;jettySize=auto;html=1;entryX=0;entryY=0.75;entryDx=0;entryDy=0;" parent="1" source="__SgPXwpqiIa2IWLgyJE-20" target="__SgPXwpqiIa2IWLgyJE-21" edge="1">
          <mxGeometry relative="1" as="geometry" />
        </mxCell>
        <mxCell id="__SgPXwpqiIa2IWLgyJE-36" style="edgeStyle=orthogonalEdgeStyle;rounded=0;orthogonalLoop=1;jettySize=auto;html=1;entryX=0;entryY=0.5;entryDx=0;entryDy=0;" parent="1" source="__SgPXwpqiIa2IWLgyJE-20" target="__SgPXwpqiIa2IWLgyJE-22" edge="1">
          <mxGeometry relative="1" as="geometry" />
        </mxCell>
        <mxCell id="__SgPXwpqiIa2IWLgyJE-20" value="" style="sketch=0;outlineConnect=0;fontColor=#232F3E;gradientColor=none;fillColor=#4D27AA;strokeColor=none;dashed=0;verticalLabelPosition=bottom;verticalAlign=top;align=center;html=1;fontSize=12;fontStyle=0;aspect=fixed;pointerEvents=1;shape=mxgraph.aws4.network_access_control_list;" parent="1" vertex="1">
          <mxGeometry x="-620" y="219.5" width="50" height="50" as="geometry" />
        </mxCell>
        <mxCell id="__SgPXwpqiIa2IWLgyJE-21" value="" style="aspect=fixed;perimeter=ellipsePerimeter;html=1;align=center;shadow=0;dashed=0;spacingTop=3;image;image=img/lib/active_directory/generic_server.svg;" parent="1" vertex="1">
          <mxGeometry x="-540" y="183.75" width="28.000000000000004" height="50" as="geometry" />
        </mxCell>
        <mxCell id="__SgPXwpqiIa2IWLgyJE-22" value="" style="aspect=fixed;perimeter=ellipsePerimeter;html=1;align=center;shadow=0;dashed=0;spacingTop=3;image;image=img/lib/active_directory/generic_server.svg;" parent="1" vertex="1">
          <mxGeometry x="-540" y="248.75" width="28.000000000000004" height="50" as="geometry" />
        </mxCell>
        <mxCell id="__SgPXwpqiIa2IWLgyJE-24" style="edgeStyle=orthogonalEdgeStyle;rounded=0;orthogonalLoop=1;jettySize=auto;html=1;" parent="1" source="__SgPXwpqiIa2IWLgyJE-23" edge="1">
          <mxGeometry relative="1" as="geometry">
            <mxPoint x="-180" y="76.5" as="targetPoint" />
          </mxGeometry>
        </mxCell>
        <mxCell id="__SgPXwpqiIa2IWLgyJE-23" value="" style="aspect=fixed;perimeter=ellipsePerimeter;html=1;align=center;shadow=0;dashed=0;spacingTop=3;image;image=img/lib/active_directory/internet_cloud.svg;" parent="1" vertex="1">
          <mxGeometry x="-90" y="40" width="115.88" height="73" as="geometry" />
        </mxCell>
        <mxCell id="__SgPXwpqiIa2IWLgyJE-37" style="edgeStyle=orthogonalEdgeStyle;rounded=0;orthogonalLoop=1;jettySize=auto;html=1;" parent="1" source="__SgPXwpqiIa2IWLgyJE-28" target="__SgPXwpqiIa2IWLgyJE-20" edge="1">
          <mxGeometry relative="1" as="geometry" />
        </mxCell>
        <mxCell id="__SgPXwpqiIa2IWLgyJE-28" value="" style="image;html=1;image=img/lib/clip_art/networking/Switch_128x128.png" parent="1" vertex="1">
          <mxGeometry x="-720" y="219.5" width="60" height="43.5" as="geometry" />
        </mxCell>
        <mxCell id="__SgPXwpqiIa2IWLgyJE-41" value="WS1" style="text;html=1;align=center;verticalAlign=middle;resizable=0;points=[];autosize=1;strokeColor=none;fillColor=none;" parent="1" vertex="1">
          <mxGeometry x="-407" y="325" width="50" height="30" as="geometry" />
        </mxCell>
        <mxCell id="__SgPXwpqiIa2IWLgyJE-42" value="WS2" style="text;html=1;align=center;verticalAlign=middle;resizable=0;points=[];autosize=1;strokeColor=none;fillColor=none;" parent="1" vertex="1">
          <mxGeometry x="-362" y="325" width="50" height="30" as="geometry" />
        </mxCell>
        <mxCell id="__SgPXwpqiIa2IWLgyJE-43" value="WS3" style="text;html=1;align=center;verticalAlign=middle;resizable=0;points=[];autosize=1;strokeColor=none;fillColor=none;" parent="1" vertex="1">
          <mxGeometry x="-316.5" y="325" width="50" height="30" as="geometry" />
        </mxCell>
        <mxCell id="__SgPXwpqiIa2IWLgyJE-44" value="Load Balancer" style="text;html=1;align=center;verticalAlign=middle;resizable=0;points=[];autosize=1;strokeColor=none;fillColor=none;" parent="1" vertex="1">
          <mxGeometry x="-386.5" y="121" width="100" height="30" as="geometry" />
        </mxCell>
        <mxCell id="__SgPXwpqiIa2IWLgyJE-47" value="" style="rounded=0;whiteSpace=wrap;html=1;labelBackgroundColor=none;fontColor=none;noLabel=1;fillColor=none;" parent="1" vertex="1">
          <mxGeometry x="-489.5" y="40" width="309.5" height="310" as="geometry" />
        </mxCell>
        <mxCell id="__SgPXwpqiIa2IWLgyJE-49" value="DMZ" style="text;html=1;align=center;verticalAlign=middle;resizable=0;points=[];autosize=1;strokeColor=none;fillColor=none;fontColor=none;fontStyle=1" parent="1" vertex="1">
          <mxGeometry x="-354.5" y="5" width="50" height="30" as="geometry" />
        </mxCell>
        <mxCell id="__SgPXwpqiIa2IWLgyJE-50" value="Internal Network" style="text;html=1;align=center;verticalAlign=middle;resizable=0;points=[];autosize=1;strokeColor=none;fillColor=none;fontColor=none;fontStyle=1" parent="1" vertex="1">
          <mxGeometry x="-655" y="5" width="120" height="30" as="geometry" />
        </mxCell>
        <mxCell id="__SgPXwpqiIa2IWLgyJE-51" value="Internet" style="text;html=1;align=center;verticalAlign=middle;resizable=0;points=[];autosize=1;strokeColor=none;fillColor=none;fontColor=none;fontStyle=1" parent="1" vertex="1">
          <mxGeometry x="-67.06" y="5" width="70" height="30" as="geometry" />
        </mxCell>
        <mxCell id="__SgPXwpqiIa2IWLgyJE-52" value="Access Control List" style="text;html=1;strokeColor=none;fillColor=none;align=center;verticalAlign=middle;whiteSpace=wrap;rounded=0;labelBackgroundColor=none;fontColor=none;fontSize=9;" parent="1" vertex="1">
          <mxGeometry x="-625" y="269.5" width="60" height="30" as="geometry" />
        </mxCell>
        <mxCell id="__SgPXwpqiIa2IWLgyJE-53" value="Database Server" style="text;html=1;strokeColor=none;fillColor=none;align=center;verticalAlign=middle;whiteSpace=wrap;rounded=0;labelBackgroundColor=none;fontColor=none;fontSize=9;" parent="1" vertex="1">
          <mxGeometry x="-556" y="299.5" width="60" height="30" as="geometry" />
        </mxCell>
        <mxCell id="__SgPXwpqiIa2IWLgyJE-54" value="Domain Controller Server" style="text;html=1;strokeColor=none;fillColor=none;align=center;verticalAlign=middle;whiteSpace=wrap;rounded=0;labelBackgroundColor=none;fontColor=none;fontSize=9;" parent="1" vertex="1">
          <mxGeometry x="-563" y="151" width="74" height="30" as="geometry" />
        </mxCell>
      </root>
    </mxGraphModel>
  </diagram>
</mxfile>
